<?xml version="1.0" encoding="UTF-8"?>
<svg width="32px" height="32px" viewBox="0 0 32 32" version="1.1" xmlns="http://www.w3.org/2000/svg">
    <title>cod-track-logo</title>
    <g stroke="none" stroke-width="1" fill="none" fill-rule="evenodd">
        <circle fill="#8B5CF6" cx="16" cy="16" r="16"/>
        <path d="M10,10 L22,10 C23.1045695,10 24,10.8954305 24,12 L24,20 C24,21.1045695 23.1045695,22 22,22 L10,22 C8.8954305,22 8,21.1045695 8,20 L8,12 C8,10.8954305 8.8954305,10 10,10 Z" fill="#FFFFFF"/>
        <path d="M14,14 L18,14 C18.5522847,14 19,14.4477153 19,15 L19,17 C19,17.5522847 18.5522847,18 18,18 L14,18 C13.4477153,18 13,17.5522847 13,17 L13,15 C13,14.4477153 13.4477153,14 14,14 Z" fill="#8B5CF6"/>
    </g>
</svg>